<?xml version="1.0" encoding="utf-8"?>
<!-- Generator: Adobe Illustrator 15.0.0, SVG Export Plug-In . SVG Version: 6.00 Build 0)  -->
<!DOCTYPE svg PUBLIC "-//W3C//DTD SVG 1.1//EN" "http://www.w3.org/Graphics/SVG/1.1/DTD/svg11.dtd">
<svg version="1.1" id="Слой_1" xmlns="http://www.w3.org/2000/svg" xmlns:xlink="http://www.w3.org/1999/xlink" x="0px" y="0px"
	 width="114px" height="349px" viewBox="0 0 114 349" enable-background="new 0 0 114 349" xml:space="preserve">
<g>
	<path fill-rule="evenodd" clip-rule="evenodd" fill="#B35A46" d="M60.762,61.478c0.002,0.138-0.154-0.11-0.154-0.11
		S60.682,61.417,60.762,61.478c-0.006-0.217-0.404-1.396-2.439-6.048c-2.943-6.728-3.115-15.063-3.115-15.063
		s-0.592-7.152,2.438-14.353c3.07-7.299,3.562-8.447,3.562-8.447s-5.421,5.155-22.203,5.993
		c-12.162,0.608-21.515-6.188-25.735-9.966C9.608,9.425,5.094,6.021,0,3.658v72.606c4.43-2.055,8.426-4.886,11.799-8.334
		l0.009,0.037c0,0,5.391-5.726,12.431-8.787c6.754-2.937,15.169-3.213,15.169-3.213s9.276,0.303,16.153,3.5
		C61.541,62.246,61.113,61.75,60.762,61.478z"/>
	<path fill-rule="evenodd" clip-rule="evenodd" fill="#9D8B7C" d="M60.428,177.979c0.002,0.137-0.154-0.111-0.154-0.111
		S60.35,177.918,60.428,177.979c-0.004-0.217-0.402-1.396-2.439-6.048c-2.943-6.728-3.113-15.063-3.113-15.063
		s-0.592-7.152,2.438-14.353c3.07-7.299,3.562-8.447,3.562-8.447s-5.423,5.155-22.203,5.993
		c-12.164,0.608-21.516-6.188-25.736-9.966c-3.581-4.078-7.98-7.416-12.937-9.772v72.288c4.297-2.041,8.177-4.82,11.466-8.182
		l0.009,0.037c0,0,5.391-5.727,12.432-8.787c6.752-2.936,15.168-3.212,15.168-3.212s9.275,0.303,16.154,3.5
		C61.207,178.746,60.781,178.25,60.428,177.979z"/>
	<g>
		<path fill-rule="evenodd" clip-rule="evenodd" fill="#8BA796" d="M4,76.068c0,0-1.146,1.085-4,2.34v7.227
			c0.138-0.373,0.28-0.746,0.438-1.12C3.508,77.216,4,76.068,4,76.068z"/>
		<path fill-rule="evenodd" clip-rule="evenodd" fill="#8BA796" d="M3.554,119.978c0.002,0.138-0.154-0.11-0.154-0.11
			S3.475,119.917,3.554,119.978c-0.005-0.217-0.403-1.396-2.439-6.048c-0.43-0.982-0.794-2-1.114-3.021v7.813
			C4.229,120.638,3.87,120.222,3.554,119.978z"/>
	</g>
	<path fill-rule="evenodd" clip-rule="evenodd" fill="#9D8B7C" d="M4.23-0.033C10.799,13.069,24.344,22.068,40,22.068
		c11.205,0,21.328-4.613,28.589-12.037l0.01,0.037c0,0,5.391-5.726,12.432-8.787c1.189-0.518,2.432-0.948,3.668-1.313H4.23z"/>
	<path fill-rule="evenodd" clip-rule="evenodd" fill="#8BA796" d="M60.596,294.311c0.002,0.139-0.154-0.109-0.154-0.109
		S60.516,294.25,60.596,294.311c-0.006-0.217-0.404-1.395-2.439-6.047c-2.944-6.729-3.115-15.063-3.115-15.063
		s-0.592-7.152,2.438-14.354c3.07-7.299,3.562-8.447,3.562-8.447s-5.422,5.156-22.203,5.994
		c-12.163,0.607-21.516-6.189-25.735-9.967c-3.581-4.078-7.98-7.416-12.937-9.771v72.289c4.297-2.043,8.177-4.82,11.466-8.182
		l0.009,0.037c0,0,5.391-5.727,12.432-8.787c6.753-2.938,15.168-3.213,15.168-3.213s9.276,0.303,16.154,3.5
		C61.373,295.08,60.947,294.584,60.596,294.311z"/>
	<g>
		<path fill-rule="evenodd" clip-rule="evenodd" fill="#B35A46" d="M4,192.068c0,0-1.146,1.084-4,2.34v7.227
			c0.138-0.373,0.28-0.746,0.438-1.119C3.508,193.217,4,192.068,4,192.068z"/>
		<path fill-rule="evenodd" clip-rule="evenodd" fill="#B35A46" d="M3.554,235.979c0.002,0.137-0.154-0.111-0.154-0.111
			S3.475,235.918,3.554,235.979c-0.005-0.217-0.403-1.396-2.439-6.049c-0.43-0.982-0.794-2-1.114-3.02v7.813
			C4.229,236.639,3.87,236.223,3.554,235.979z"/>
	</g>
	<path fill="#9D8B7C" d="M4.166,308.734c0,0-1.146,1.084-4,2.34v7.227c0.138-0.373,0.28-0.746,0.437-1.119
		C3.674,309.883,4.166,308.734,4.166,308.734z"/>
	<path fill="#9D8B7C" d="M1.28,346.596c-0.43-0.98-0.794-1.998-1.114-3.018v5.455h2.167C2.042,348.35,1.697,347.549,1.28,346.596z"
		/>
	<path fill="#9D8B7C" d="M3.554,3.58c0.002,0.138-0.154-0.11-0.154-0.11S3.475,3.52,3.554,3.58C3.55,3.408,3.294,2.62,2.167-0.031H0
		v2.356C4.23,4.24,3.87,3.824,3.554,3.58z"/>
	<path fill-rule="evenodd" clip-rule="evenodd" fill="#9D8B7C" d="M114-0.033h-6.016c1.49,0.431,2.979,0.954,4.369,1.601
		c0.621,0.288,1.156,0.534,1.646,0.755V-0.033z"/>
	<path fill-rule="evenodd" clip-rule="evenodd" fill="#B35A46" d="M114,3.823c-5.191-2.467-10.994-3.856-17.125-3.856
		c-22.092,0-40,17.909-40,40c0,22.092,17.908,40,40,40c6.131,0,11.934-1.389,17.125-3.855V3.823z"/>
	<path fill-rule="evenodd" clip-rule="evenodd" fill="#8BA796" d="M114,110.91c-1.869-5.964-2-12.042-2-12.042
		s-0.527-6.429,2-13.233v-7.227c-3.369,1.481-9.119,3.2-18.203,3.653c-12.164,0.608-21.516-6.188-25.736-9.966
		C62.73,63.746,51.985,58.467,40,58.467c-22.092,0-40,17.909-40,40c0,22.092,17.908,40,40,40c11.205,0,21.328-4.613,28.589-12.037
		l0.01,0.037c0,0,5.391-5.726,12.432-8.787c6.752-2.937,15.168-3.213,15.168-3.213s9.275,0.303,16.154,3.5
		c0.621,0.288,1.156,0.534,1.646,0.755V110.91z"/>
	<path fill-rule="evenodd" clip-rule="evenodd" fill="#9D8B7C" d="M114,120.323c-5.191-2.467-10.994-3.856-17.125-3.856
		c-22.092,0-40,17.909-40,40c0,22.091,17.908,40,40,40c6.131,0,11.934-1.389,17.125-3.855V120.323z"/>
	<path fill-rule="evenodd" clip-rule="evenodd" fill="#8BA796" d="M114,236.656c-5.191-2.467-10.994-3.855-17.125-3.855
		c-22.092,0-40,17.91-40,40c0,22.092,17.908,40,40,40c6.131,0,11.934-1.389,17.125-3.855V236.656z"/>
	<path fill-rule="evenodd" clip-rule="evenodd" fill="#B35A46" d="M114,226.91c-1.869-5.965-2-12.043-2-12.043s-0.527-6.43,2-13.232
		v-7.227c-3.369,1.48-9.119,3.199-18.203,3.652c-12.164,0.609-21.516-6.188-25.736-9.965c-7.33-8.35-18.076-13.628-30.06-13.628
		c-22.092,0-40,17.91-40,40c0,22.092,17.908,40,40,40c11.205,0,21.328-4.613,28.589-12.037l0.01,0.037c0,0,5.391-5.727,12.432-8.787
		c6.752-2.936,15.168-3.213,15.168-3.213s9.275,0.303,16.154,3.5c0.621,0.289,1.156,0.533,1.646,0.756V226.91z"/>
	<path fill-rule="evenodd" clip-rule="evenodd" fill="#9D8B7C" d="M114,343.576c-1.869-5.965-2-12.043-2-12.043
		s-0.527-6.428,2-13.232v-7.227c-3.369,1.48-9.119,3.199-18.203,3.652c-12.164,0.609-21.516-6.188-25.736-9.965
		c-7.33-8.35-18.076-13.629-30.06-13.629c-22.092,0-40,17.91-40,40c0,6.438,1.529,12.514,4.23,17.9h80.469
		c5.789-1.709,11.5-1.9,11.5-1.9s5.904,0.199,11.785,1.9H114V343.576z"/>
</g>
</svg>
