<?xml version="1.0" encoding="utf-8"?>
<!-- Generator: Adobe Illustrator 15.0.0, SVG Export Plug-In . SVG Version: 6.00 Build 0)  -->
<!DOCTYPE svg PUBLIC "-//W3C//DTD SVG 1.1//EN" "http://www.w3.org/Graphics/SVG/1.1/DTD/svg11.dtd">
<svg version="1.1" id="Слой_1" xmlns="http://www.w3.org/2000/svg" xmlns:xlink="http://www.w3.org/1999/xlink" x="0px" y="0px"
	 width="349px" height="303.15px" viewBox="0 0 349 303.15" enable-background="new 0 0 349 303.15" xml:space="preserve">
<path d="M173.684,2.021l27.437,47.521l-27.437,47.521h-54.872L91.375,49.542l27.437-47.521H173.684 M174.839,0.021h-57.183
	L89.066,49.542l28.591,49.521h57.183l28.59-49.521L174.839,0.021L174.839,0.021z"/>
<path d="M173.684,103.063l27.437,47.52l-27.437,47.522h-54.872l-27.437-47.522l27.437-47.52H173.684 M174.839,101.063h-57.183
	l-28.591,49.52l28.591,49.522h57.183l28.59-49.522L174.839,101.063L174.839,101.063z"/>
<path d="M173.684,204.105l27.437,47.52l-27.437,47.521h-54.872l-27.437-47.521l27.437-47.52H173.684 M174.839,202.105h-57.183
	l-28.591,49.52l28.591,49.521h57.183l28.59-49.521L174.839,202.105L174.839,202.105z"/>
<path d="M260.881,52.542l27.438,47.521l-27.438,47.521H206.01l-27.438-47.521l27.438-47.521H260.881 M262.037,50.542h-57.184
	l-28.59,49.521l28.59,49.521h57.184l28.59-49.521L262.037,50.542L262.037,50.542z"/>
<path d="M260.881,153.584l27.438,47.521l-27.438,47.52H206.01l-27.438-47.52l27.438-47.521H260.881 M262.037,151.583h-57.184
	l-28.59,49.522l28.59,49.52h57.184l28.59-49.52L262.037,151.583L262.037,151.583z"/>
<path d="M86.215,52.709l27.437,47.521l-27.437,47.521H31.343L3.907,100.229l27.436-47.521H86.215 M87.37,50.709H30.188
	L1.597,100.229l28.591,49.521H87.37l28.59-49.521L87.37,50.709L87.37,50.709z"/>
<path d="M86.215,153.75l27.437,47.521l-27.437,47.521H31.343L3.907,201.271l27.436-47.521H86.215 M87.37,151.751H30.188
	l-28.591,49.52l28.591,49.521H87.37l28.59-49.521L87.37,151.751L87.37,151.751z"/>
<polygon points="0.173,0 0,0 0,3.701 26.454,49.521 0,95.341 0,99.042 0.173,99.042 28.764,49.521 "/>
<polygon points="0.173,101.042 0,101.042 0,104.742 26.454,150.563 0,196.383 0,200.082 0.173,200.082 28.764,150.563 "/>
<polygon points="0.173,202.082 0,202.082 0,205.783 26.454,251.604 0,297.424 0,301.125 0.173,301.125 28.764,251.604 "/>
<polygon points="113.134,0.083 86.215,46.709 31.343,46.709 4.423,0.083 2.114,0.083 30.188,48.709 87.37,48.709 115.445,0.083 "/>
<polygon points="287.705,0.083 260.881,46.542 206.01,46.542 179.186,0.083 176.877,0.083 204.854,48.542 262.037,48.542 
	290.014,0.083 "/>
<polygon points="349,95.34 348.018,97.042 293.145,97.042 265.709,49.521 293.145,2 348.018,2 349,3.702 349,0 291.99,0 
	263.4,49.521 291.99,99.042 349,99.042 "/>
<polygon points="349,196.381 348.018,198.084 293.145,198.084 265.709,150.564 293.145,103.042 348.018,103.042 349,104.744 
	349,101.042 291.99,101.042 263.4,150.564 291.99,200.084 349,200.084 "/>
<polygon points="349,297.424 348.018,299.125 293.145,299.125 265.709,251.605 293.145,204.084 348.018,204.084 349,205.785 
	349,202.084 291.99,202.084 263.4,251.605 291.99,301.125 349,301.125 "/>
<polygon points="4.438,303.232 3.907,302.313 31.343,254.793 86.215,254.793 113.652,302.313 113.121,303.232 115.43,303.232 
	115.96,302.313 87.37,252.793 30.188,252.793 1.597,302.313 2.128,303.232 "/>
<polygon points="179.199,303.232 178.572,302.146 206.01,254.625 260.881,254.625 288.318,302.146 287.691,303.232 290,303.232 
	290.627,302.146 262.037,252.625 204.854,252.625 176.264,302.146 176.891,303.232 "/>
</svg>
