<?xml version="1.0" encoding="utf-8"?>
<!-- Generator: Adobe Illustrator 15.0.0, SVG Export Plug-In . SVG Version: 6.00 Build 0)  -->
<!DOCTYPE svg PUBLIC "-//W3C//DTD SVG 1.1//EN" "http://www.w3.org/Graphics/SVG/1.1/DTD/svg11.dtd">
<svg version="1.1" id="Слой_1" xmlns="http://www.w3.org/2000/svg" xmlns:xlink="http://www.w3.org/1999/xlink" x="0px" y="0px"
	 width="114px" height="349px" viewBox="0 0 114 349" enable-background="new 0 0 114 349" xml:space="preserve">
<g>
	<g>
		<path d="M4,76.101c0,0-1.146,1.085-4,2.34v7.227c0.138-0.373,0.28-0.746,0.438-1.12C3.508,77.249,4,76.101,4,76.101L4,76.101z"/>
		<path d="M0,110.942v7.813c2.586,1.171,3.457,1.471,3.67,1.471c0.135,0,0.006-0.121-0.117-0.216c0,0.03-0.007,0.042-0.018,0.042
			c-0.041,0-0.136-0.152-0.136-0.152s0.075,0.05,0.154,0.11c-0.005-0.217-0.403-1.396-2.439-6.048
			C0.685,112.98,0.32,111.963,0,110.942L0,110.942z"/>
	</g>
	<g>
		<path d="M4,192.101c0,0-1.146,1.085-4,2.34v7.228c0.138-0.373,0.28-0.746,0.438-1.12C3.508,193.249,4,192.101,4,192.101L4,192.101
			z"/>
		<path d="M0,226.942v7.813c2.586,1.171,3.457,1.471,3.67,1.471c0.135,0,0.006-0.121-0.117-0.216c0,0.03-0.007,0.042-0.018,0.042
			c-0.041,0-0.136-0.152-0.136-0.152s0.075,0.05,0.154,0.11c-0.005-0.217-0.403-1.396-2.439-6.048
			C0.685,228.98,0.32,227.963,0,226.942L0,226.942z"/>
	</g>
	<path d="M4,308.768c0,0-1.146,1.084-4,2.34v7.226c0.138-0.372,0.28-0.745,0.437-1.118C3.507,309.916,4,308.768,4,308.768L4,308.768
		z"/>
	<path d="M0,343.545V349h2.166c-0.29-0.684-0.635-1.484-1.053-2.438C0.684,345.581,0.32,344.564,0,343.545L0,343.545z"/>
	<path d="M2.167,0.001H0v2.356c2.587,1.171,3.457,1.47,3.67,1.47c0.135,0,0.006-0.121-0.117-0.215c0,0.03-0.007,0.042-0.018,0.042
		c-0.041,0-0.136-0.152-0.136-0.152s0.075,0.05,0.154,0.11C3.55,3.44,3.294,2.653,2.167,0.001L2.167,0.001z"/>
	<path d="M114,0h-6.015c1.489,0.431,2.978,0.954,4.368,1.601c0.621,0.288,1.156,0.534,1.646,0.755V0L114,0z"/>
	<path d="M60.762,61.511c0,0.03-0.007,0.042-0.018,0.042c-0.041,0-0.137-0.152-0.137-0.152S60.683,61.45,60.762,61.511
		c-0.005-0.217-0.403-1.396-2.439-6.048C55.379,48.735,55.208,40.4,55.208,40.4s-0.592-7.152,2.438-14.353
		c3.07-7.299,3.563-8.447,3.563-8.447s-5.423,5.155-22.203,5.993c-0.515,0.026-1.025,0.038-1.53,0.038
		c-11.417,0-20.165-6.386-24.206-10.004C9.608,9.458,5.094,6.054,0,3.691v2.346l2,1.03V6.969c0.301,0.171,0.583,0.371,0.878,0.55
		L3.21,7.69l0.518,0.327l0.004,0.037c2.967,1.909,5.668,4.199,8.035,6.894l0.08,0.091l0.089,0.08
		c4.387,3.927,13.538,10.514,25.54,10.514c0.541,0,1.089-0.014,1.629-0.041c8.562-0.428,14.337-1.974,18.018-3.457
		c-0.376,0.893-0.813,1.932-1.32,3.138c-3.063,7.28-2.651,14.423-2.592,15.228c0.022,0.838,0.311,8.978,3.28,15.764
		c0.004,0.01,0.008,0.019,0.012,0.029l-2.511-1.658l1.725,2.743c-7.063-3.044-15.86-3.365-16.243-3.377l-0.065-0.002l-0.065,0.002
		c-0.359,0.012-8.878,0.324-15.9,3.378c-4.394,1.91-8.139,4.764-10.485,6.798l-0.049-0.208l-2.538,2.595
		C7.884,69.105,5.078,71.268,2,73.019l-2,0.828v2.451c4.43-2.055,8.426-4.886,11.799-8.334L11.808,68c0,0,5.391-5.726,12.432-8.787
		C30.992,56.276,39.408,56,39.408,56s9.276,0.303,16.154,3.5c3.886,1.806,5.066,2.229,5.319,2.229
		C61.018,61.729,60.885,61.606,60.762,61.511z"/>
	<path d="M60.429,178.011c0,0.03-0.007,0.042-0.018,0.042c-0.041,0-0.137-0.152-0.137-0.152S60.35,177.95,60.429,178.011
		c-0.005-0.217-0.403-1.396-2.439-6.048c-2.943-6.728-3.114-15.063-3.114-15.063s-0.592-7.152,2.438-14.353
		c3.07-7.299,3.563-8.447,3.563-8.447s-5.423,5.155-22.203,5.993c-0.515,0.026-1.025,0.038-1.53,0.038
		c-11.417,0-20.165-6.386-24.206-10.004c-3.581-4.078-7.98-7.416-12.937-9.772v2.181l3.21,1.653l0.519,0.327l0.03,0.275
		c2.832,1.865,5.411,4.077,7.675,6.655l0.08,0.091l0.089,0.08c4.387,3.927,13.537,10.514,25.54,10.514
		c0.541,0,1.089-0.014,1.629-0.041c8.562-0.428,14.337-1.974,18.018-3.457c-0.376,0.893-0.813,1.932-1.32,3.138
		c-3.063,7.28-2.651,14.423-2.592,15.228c0.022,0.838,0.311,8.978,3.28,15.764c0.004,0.01,0.008,0.019,0.012,0.029l-2.526-1.668
		l1.732,2.75c-7.062-3.041-15.853-3.361-16.235-3.374l-0.065-0.002l-0.065,0.002c-0.359,0.012-8.878,0.324-15.9,3.378
		c-4.394,1.91-8.139,4.764-10.485,6.798l-0.049-0.207l-2.539,2.595c-2.384,2.437-5.064,4.526-7.994,6.239L2,189.52l-2,0.827v2.298
		c4.297-2.042,8.177-4.82,11.466-8.182l0.009,0.037c0,0,5.391-5.727,12.432-8.787c6.753-2.937,15.168-3.213,15.168-3.213
		s9.276,0.303,16.154,3.5c3.885,1.806,5.065,2.229,5.319,2.229C60.685,178.229,60.552,178.106,60.429,178.011z"/>
	<path d="M60.43,294.344c0,0.03-0.008,0.042-0.02,0.042c-0.039,0-0.135-0.151-0.135-0.151S60.35,294.283,60.43,294.344
		c-0.006-0.217-0.404-1.395-2.44-6.047c-2.944-6.729-3.115-15.063-3.115-15.063s-0.592-7.152,2.438-14.354
		c3.07-7.299,3.563-8.447,3.563-8.447s-5.423,5.156-22.203,5.994c-0.514,0.025-1.024,0.038-1.527,0.038
		c-11.418,0-20.167-6.387-24.208-10.005c-3.581-4.078-7.98-7.416-12.937-9.771v2.243l3.21,1.653l0.519,0.327l0.022,0.207
		c2.834,1.865,5.417,4.079,7.683,6.66l0.08,0.091l0.089,0.08c4.387,3.927,13.539,10.515,25.542,10.515
		c0.54,0,1.087-0.014,1.627-0.041c8.562-0.427,14.336-1.974,18.018-3.457c-0.376,0.894-0.813,1.932-1.32,3.138
		c-3.063,7.281-2.65,14.424-2.592,15.229c0.022,0.838,0.311,8.978,3.28,15.765c0.01,0.021,0.019,0.043,0.028,0.064l-2.502-1.641
		l1.692,2.687c-7.062-3.041-15.853-3.361-16.235-3.374l-0.065-0.002l-0.065,0.002c-0.359,0.012-8.878,0.323-15.9,3.378
		c-4.394,1.91-8.138,4.763-10.484,6.797l-0.049-0.207l-2.54,2.596c-2.379,2.432-5.055,4.518-7.98,6.229L2,305.916l-2,0.827v2.235
		c4.297-2.043,8.177-4.82,11.466-8.182l0.009,0.037c0,0,5.391-5.727,12.432-8.787c6.753-2.938,15.168-3.213,15.168-3.213
		s9.276,0.303,16.154,3.5c3.885,1.805,5.064,2.229,5.318,2.229C60.686,294.563,60.553,294.439,60.43,294.344z"/>
	<g>
		<path d="M5.621,347H5.486c-0.2-0.432-0.38-0.869-0.563-1.306l-0.039-0.074l0.007-0.001C2.979,341.019,2,336.148,2,331.1
			c0-20.953,17.047-38,38-38c10.924,0,21.334,4.72,28.559,12.948l0.079,0.091l0.09,0.08c4.386,3.926,13.536,10.513,25.537,10.513
			c0.542,0,1.091-0.014,1.632-0.041c7.046-0.351,12.154-1.463,15.708-2.616l2.396-1.222v-1.812
			c-3.369,1.48-9.119,3.199-18.203,3.652c-0.516,0.025-1.027,0.038-1.532,0.038c-11.416,0-20.162-6.386-24.203-10.003
			C62.73,296.379,51.984,291.1,40,291.1c-22.092,0-40,17.91-40,40c0,6.438,1.529,12.514,4.23,17.9h2.457L5.621,347z"/>
		<path d="M96.267,345.101l-0.067-0.002l-0.067,0.002c-0.239,0.008-5.854,0.214-11.717,1.899h-0.04
			c-1.425,0.401-3.419,1.168-5.422,2H84.7c5.788-1.709,11.499-1.9,11.499-1.9s5.905,0.198,11.786,1.9H114l-5.734-2
			C102.31,345.321,96.514,345.109,96.267,345.101z"/>
		<path d="M114,313.173c-0.28,0.679-0.938,2.267-2.102,5.046c-2.29,6.607-1.948,12.658-1.896,13.382
			c0.019,0.673,0.227,6.42,1.998,12.244l2,5.155v-5.457c-1.869-5.965-2-12.043-2-12.043s-0.526-6.429,2-13.232V313.173z"/>
	</g>
	<path d="M79.021,0c-1.345,0.648-2.891,1.601-3.523,2l0,0c-2.329,1.462-4.304,3.024-5.747,4.276L69.7,6.069l-2.539,2.596
		C59.947,16.04,50.302,20.101,40,20.101c-12.468,0-23.859-5.979-30.927-15.921C9.07,4.176,9.064,4.173,9.062,4.169
		c-0.381-0.499-0.771-1.101-1.146-1.73C7.822,2.291,7.719,2.15,7.627,2H7.66C7.266,1.313,6.897,0.618,6.585,0H4.23
		C10.799,13.102,24.345,22.101,40,22.101c11.205,0,21.329-4.613,28.591-12.037l0.009,0.037c0,0,5.391-5.726,12.432-8.787
		C82.221,0.796,83.463,0.365,84.7,0H79.021z"/>
	<path d="M112,74.738v0.12c-0.315,0.138-0.636,0.259-0.953,0.387l-0.055,0.029l-0.002-0.006C106.502,77.074,101.768,78,96.875,78
		c-20.953,0-38-17.047-38-38s17.047-38,38-38c4.893,0,9.628,0.926,14.115,2.732l0.002-0.006L114,5.867V3.856
		C108.809,1.389,103.006,0,96.875,0c-22.092,0-40,17.909-40,40c0,22.092,17.908,40,40,40c6.131,0,11.934-1.389,17.125-3.855v-2.47
		L112,74.738z"/>
	<path d="M112,191.237v0.121c-0.317,0.139-0.64,0.261-0.96,0.39l-0.048,0.025l-0.002-0.005c-4.487,1.806-9.223,2.731-14.115,2.731
		c-20.953,0-38-17.047-38-38s17.047-38,38-38c4.893,0,9.628,0.926,14.115,2.732l0.002-0.006l3.008,1.141v-2.011
		c-5.191-2.467-10.994-3.856-17.125-3.856c-22.092,0-40,17.909-40,40c0,22.092,17.908,40,40,40c6.131,0,11.934-1.389,17.125-3.855
		v-2.471L112,191.237z"/>
	<path d="M112,307.571v0.121c-0.317,0.139-0.64,0.261-0.96,0.39l-0.048,0.025l-0.002-0.005c-4.487,1.806-9.223,2.731-14.115,2.731
		c-20.953,0-38-17.047-38-38s17.047-38,38-38c4.893,0,9.628,0.926,14.115,2.732l0.002-0.006l3.008,1.141v-2.012
		c-5.191-2.467-10.994-3.855-17.125-3.855c-22.092,0-40,17.909-40,40c0,22.092,17.908,40,40,40c6.131,0,11.934-1.389,17.125-3.855
		v-2.471L112,307.571z"/>
	<g>
		<path d="M110.002,99.001c0.019,0.669,0.225,6.321,1.954,12.09l2.044,5.177v-5.326c-1.869-5.964-2-12.042-2-12.042
			s-0.526-6.429,2-13.233v-5.19l-2,4.837C109.592,92.041,109.949,98.269,110.002,99.001z"/>
		<path d="M95.797,82.094c-0.515,0.026-1.025,0.038-1.529,0.038c-11.417,0-20.165-6.386-24.206-10.004
			C62.73,63.778,51.984,58.5,40,58.5c-22.092,0-40,17.909-40,40c0,22.092,17.908,40,40,40c11.205,0,21.329-4.613,28.591-12.037
			L68.6,126.5c0,0,5.391-5.726,12.432-8.787c6.753-2.937,15.168-3.213,15.168-3.213s9.276,0.303,16.154,3.5
			c0.621,0.288,1.156,0.534,1.646,0.755v-2.487l-2-0.663v0.06c-6.97-2.846-15.361-3.152-15.735-3.164l-0.065-0.002l-0.065,0.002
			c-0.359,0.012-8.878,0.324-15.9,3.378c-4.394,1.91-8.138,4.763-10.483,6.797l-0.05-0.208l-2.539,2.596
			C59.947,132.439,50.302,136.5,40,136.5c-20.953,0-38-17.047-38-38s17.047-38,38-38c10.925,0,21.334,4.719,28.559,12.947
			l0.079,0.091l0.09,0.08c4.387,3.927,13.537,10.514,25.54,10.514c0.541,0,1.089-0.014,1.629-0.041
			c7.303-0.365,12.54-1.544,16.104-2.742l2-0.872V78.44C110.631,79.922,104.881,81.64,95.797,82.094z"/>
	</g>
	<path d="M114,194.44c-3.369,1.481-9.119,3.2-18.203,3.653c-0.515,0.025-1.025,0.038-1.529,0.038
		c-11.417,0-20.165-6.387-24.206-10.004C62.73,179.778,51.984,174.5,40,174.5c-22.092,0-40,17.909-40,40c0,22.092,17.908,40,40,40
		c11.205,0,21.329-4.613,28.591-12.037L68.6,242.5c0,0,5.391-5.727,12.432-8.787c6.753-2.937,15.168-3.213,15.168-3.213
		s9.276,0.303,16.154,3.5c0.621,0.288,1.156,0.533,1.646,0.756v-7.813c-1.869-5.964-2-12.042-2-12.042s-0.526-6.43,2-13.232V194.44z
		 M111.999,201.442c0,0-0.017-0.003-0.04-0.007c-2.36,6.679-2.01,12.838-1.957,13.565c0.019,0.675,0.227,6.421,1.998,12.243v0.09
		l1.999,5.062l-3.086-1.021l0.028-0.113c-6.733-2.468-14.321-2.748-14.677-2.76l-0.065-0.002l-0.065,0.002
		c-0.359,0.012-8.878,0.324-15.899,3.378c-4.395,1.91-8.139,4.763-10.484,6.797l-0.05-0.208l-2.539,2.597
		C59.947,248.438,50.302,252.5,40,252.5c-20.953,0-38-17.047-38-38s17.047-38,38-38c10.925,0,21.334,4.719,28.559,12.947
		l0.079,0.091l0.09,0.08c4.387,3.927,13.537,10.514,25.54,10.514c0.541,0,1.089-0.014,1.629-0.041
		c7.302-0.364,12.539-1.544,16.104-2.741v0.127l1.999-0.871L111.999,201.442z"/>
</g>
</svg>
