<?xml version="1.0" encoding="utf-8"?>
<!-- Generator: Adobe Illustrator 15.0.0, SVG Export Plug-In . SVG Version: 6.00 Build 0)  -->
<!DOCTYPE svg PUBLIC "-//W3C//DTD SVG 1.1//EN" "http://www.w3.org/Graphics/SVG/1.1/DTD/svg11.dtd">
<svg version="1.1" id="Слой_1" xmlns="http://www.w3.org/2000/svg" xmlns:xlink="http://www.w3.org/1999/xlink" x="0px" y="0px"
	 width="117px" height="232.8px" viewBox="0 0 117 232.8" enable-background="new 0 0 117 232.8" xml:space="preserve">
<g>
	<polygon fill-rule="evenodd" clip-rule="evenodd" fill="#D5A65A" points="90.882,58.303 79.013,70.261 35.346,70.261 
		23.503,58.303 0.013,58.303 0.013,126.302 21.079,126.302 33.021,114.36 81.895,114.36 93.838,126.302 115.013,126.302 
		115.013,58.303 	"/>
	<polygon fill-rule="evenodd" clip-rule="evenodd" fill="#B35A46" points="32.382,0 20.513,11.958 0,11.958 0,56.057 23.395,56.057 
		35.337,68 56.513,68 56.513,0 	"/>
	<polygon fill-rule="evenodd" clip-rule="evenodd" fill="#506C76" points="32.382,116.446 20.513,128.405 0.013,128.405 
		0.013,172.505 23.395,172.505 35.337,184.446 56.513,184.446 56.513,116.446 	"/>
	<g>
		<polygon fill-rule="evenodd" clip-rule="evenodd" fill="#8BA796" points="0.013,0 0.013,10 21.079,10 31.079,0 		"/>
		<polygon fill-rule="evenodd" clip-rule="evenodd" fill="#8BA796" points="83.838,0 93.838,10 115.013,10 115.013,0 		"/>
	</g>
	<polygon fill-rule="evenodd" clip-rule="evenodd" fill="#8BA796" points="31.03,232.8 33.021,230.808 81.895,230.808 83.887,232.8 
		115.013,232.8 115.013,174.749 90.882,174.749 79.013,186.708 35.346,186.708 23.503,174.749 0.013,174.749 0.013,232.8 	"/>
	<polygon fill-rule="evenodd" clip-rule="evenodd" fill="#B35A46" points="117,11.958 93.846,11.958 82.003,0 58.513,0 58.513,68 
		79.579,68 91.521,56.057 117,56.057 	"/>
	<polygon fill-rule="evenodd" clip-rule="evenodd" fill="#506C76" points="117,128.405 93.846,128.405 82.003,116.446 
		58.513,116.446 58.513,184.446 79.579,184.446 91.521,172.505 117,172.505 	"/>
</g>
</svg>
