<?xml version="1.0" encoding="utf-8"?>
<!-- Generator: Adobe Illustrator 15.0.0, SVG Export Plug-In . SVG Version: 6.00 Build 0)  -->
<!DOCTYPE svg PUBLIC "-//W3C//DTD SVG 1.1//EN" "http://www.w3.org/Graphics/SVG/1.1/DTD/svg11.dtd">
<svg version="1.1" id="Слой_1" xmlns="http://www.w3.org/2000/svg" xmlns:xlink="http://www.w3.org/1999/xlink" x="0px" y="0px"
	 width="173.03px" height="169.45px" viewBox="0 0 173.03 169.45" enable-background="new 0 0 173.03 169.45" xml:space="preserve">
<path d="M36.067,46.98l20.479,10.512l0.905,0.464l0.908-0.457L78.49,47.366l6.553,3.078l-4.731,7.961l-0.567,0.954l0.51,0.986
	l10.551,20.417l-2.972,6.439l-8.115-4.522l-0.956-0.532l-0.963,0.518L57.444,93.594L36.953,82.939l-0.929-0.483l-0.926,0.488
	L14.989,93.541l-6.229-4.02l4.688-7.618l0.604-0.982l-0.548-1.016L2.303,59.143l3.233-5.978l8.657,4.862l0.974,0.547l0.976-0.542
	L36.067,46.98 M36.03,44.713L15.173,56.284L4.744,50.427L0.03,59.142l11.714,21.713L6.03,90.141l8.856,5.715L36.03,84.712
	l21.429,11.143l21.285-11.428l10,5.571l4.287-9.286l-11-21.286l5.857-9.856l-9.43-4.429l-21,10.571L36.03,44.713L36.03,44.713z"/>
<path d="M122.48,46.997l5.979,3.233l-4.863,8.657l-0.547,0.974l0.543,0.976l11.053,19.924l-10.512,20.478l-0.465,0.904l0.457,0.908
	l10.133,20.131l-3.076,6.555l-7.963-4.732l-0.953-0.566l-0.986,0.51l-20.418,10.551l-6.439-2.973l4.523-8.115l0.531-0.955
	l-0.518-0.965l-10.928-20.354l10.654-20.491l0.482-0.929l-0.488-0.927L88.084,59.683l4.018-6.23l7.619,4.688l0.982,0.605
	l1.016-0.548L122.48,46.997 M122.482,44.724L100.77,56.438l-9.287-5.715l-5.713,8.857l11.143,21.143l-11.143,21.428l11.428,21.285
	l-5.572,10l9.287,4.285l21.285-11l9.857,5.857l4.428-9.428l-10.57-21l11-21.428L125.34,59.866l5.857-10.429L122.482,44.724
	L122.482,44.724z"/>
<path d="M79.311,4.617l20.478,10.512l0.906,0.464l0.908-0.457l20.131-10.134l6.553,3.078l-4.732,7.961l-0.566,0.954l0.51,0.986
	l10.551,20.417l-2.973,6.438l-8.115-4.521l-0.955-0.533l-0.963,0.518L100.688,51.23L80.197,40.575l-0.929-0.483l-0.927,0.488
	L58.233,51.178l-6.229-4.019l4.688-7.619l0.604-0.982l-0.548-1.016L45.547,16.78l3.233-5.978l8.657,4.862l0.974,0.547l0.976-0.542
	L79.311,4.617 M79.275,2.35L58.417,13.921L47.988,8.063l-4.714,8.715l11.714,21.714l-5.714,9.286l8.856,5.714L79.275,42.35
	l21.428,11.143l21.285-11.429l10,5.571l4.287-9.285l-11-21.286l5.857-9.856l-9.43-4.429l-21,10.571L79.275,2.35L79.275,2.35z"/>
<g>
	<polygon points="89.199,0 87.945,2.671 83.451,0 79.536,0 88.818,5.517 91.408,0 	"/>
	<polygon points="73.945,0 57.625,8.434 51.187,5.461 54.229,0 51.94,0 48.389,6.373 57.675,10.659 78.3,0 	"/>
</g>
<polygon points="160.465,0 143.932,8.877 126.861,0 122.525,0 143.947,11.14 164.693,0 "/>
<polygon points="118.223,0 101.477,8.825 95.248,4.807 98.205,0 95.857,0 92.52,5.426 101.375,11.14 122.512,0 "/>
<polygon points="173.031,15.949 172.258,17.437 173.031,18.877 "/>
<polygon points="173.031,1.766 169.861,0 165.752,0 173.031,4.055 "/>
<g>
	<polygon points="173.031,86.543 166.463,82.641 165.51,82.074 164.523,82.583 144.105,93.135 137.666,90.162 142.189,82.048 
		142.721,81.092 142.203,80.128 131.275,59.774 141.93,39.283 142.412,38.354 141.924,37.428 131.328,17.32 135.346,11.09 
		142.965,15.778 143.947,16.383 144.963,15.835 165.725,4.633 171.703,7.867 166.84,16.523 166.293,17.497 166.836,18.473 
		173.031,29.64 173.031,25.518 168.584,17.503 173.031,9.586 173.031,6.311 165.727,2.36 144.014,14.075 134.727,8.36 
		129.014,17.218 140.156,38.36 129.014,59.789 140.441,81.074 134.869,91.074 144.156,95.359 165.441,84.361 173.031,88.869 	"/>
	<polygon points="166.912,59.78 167.369,60.688 173.031,71.935 173.031,67.487 169.156,59.789 173.031,52.24 173.031,47.861 
		167.377,58.875 	"/>
</g>
<polygon points="173.031,128.594 166.709,125.307 165.779,124.824 164.854,125.313 144.744,135.91 138.516,131.891 143.203,124.271 
	143.809,123.289 143.26,122.273 132.059,101.512 135.293,95.533 143.949,100.396 144.924,100.943 145.898,100.402 165.822,89.348 
	173.031,93.049 173.031,90.801 165.787,87.082 144.93,98.652 134.5,92.795 129.787,101.51 141.5,123.225 135.787,132.51 
	144.643,138.225 165.787,127.082 173.031,130.848 "/>
<polygon points="173.031,143.139 172.281,144.303 173.031,145.725 "/>
<g>
	<polygon points="122.535,167.176 121.609,167.664 118.221,169.449 122.512,169.449 122.543,169.434 122.572,169.449 
		126.908,169.449 123.465,167.66 	"/>
	<polygon points="95.873,169.449 98.221,169.449 99.959,166.625 100.564,165.643 100.016,164.627 88.814,143.863 92.049,137.887 
		100.705,142.748 101.68,143.295 102.654,142.754 122.578,131.701 143.057,142.213 143.963,142.678 144.871,142.221 
		165.002,132.086 171.555,135.164 166.822,143.127 166.256,144.08 166.766,145.066 173.031,157.189 173.031,152.834 
		168.543,144.148 173.031,136.596 173.031,133.648 164.971,129.863 143.971,140.434 122.543,129.434 101.686,141.006 
		91.256,135.148 86.542,143.863 98.256,165.576 	"/>
	<polygon points="165.273,166.867 164.311,167.385 160.465,169.449 164.693,169.449 165.256,169.148 165.799,169.449 
		169.908,169.449 166.229,167.4 	"/>
</g>
<g>
	<polygon points="53.953,165.801 51.919,169.449 54.209,169.449 55.7,166.773 56.233,165.818 55.715,164.854 44.787,144.5 
		55.441,124.01 55.924,123.08 55.436,122.154 44.839,102.047 48.857,95.816 56.476,100.504 57.458,101.109 58.474,100.563 
		79.237,89.359 85.214,92.594 80.352,101.25 79.805,102.223 80.347,103.199 91.4,123.123 80.888,143.602 80.423,144.506 
		80.88,145.414 91.014,165.545 89.182,169.449 91.391,169.449 93.238,165.516 82.667,144.516 93.668,123.086 82.095,102.229 
		87.953,91.801 79.238,87.086 57.524,98.801 48.238,93.086 42.524,101.943 53.667,123.086 42.524,144.516 	"/>
	<polygon points="79.021,166.801 78.035,167.311 73.894,169.449 78.25,169.449 78.953,169.086 79.564,169.449 83.479,169.449 
		79.975,167.367 	"/>
</g>
<polygon points="0,133.629 0,136.641 1.399,134.285 "/>
<polygon points="2.483,169.449 4.686,169.449 6.542,165.428 0,152.768 0,157.125 4.316,165.479 "/>
<polygon points="38.852,144.582 44.709,134.152 35.994,129.439 14.28,141.154 4.994,135.439 0.03,143.135 0.03,145.721 
	10.423,165.439 8.337,169.449 10.592,169.449 12.197,166.361 12.68,165.434 12.192,164.506 1.595,144.398 5.613,138.168 
	13.232,142.857 14.214,143.463 15.23,142.914 35.993,131.713 41.97,134.945 37.108,143.602 36.561,144.576 37.103,145.553 
	48.156,165.477 46.116,169.449 48.364,169.449 50.423,165.439 "/>
<polygon points="38.786,101.789 44.644,91.934 35.215,87.504 14.215,98.076 0.03,90.795 0.03,93.043 13.301,99.855 14.206,100.32 
	15.114,99.863 35.245,89.729 41.798,92.807 37.067,100.768 36.5,101.723 37.009,102.709 47.561,123.125 44.588,129.564 
	36.473,125.043 35.518,124.51 34.554,125.027 14.2,135.957 0.03,128.588 0.03,130.844 14.215,138.219 35.5,126.789 45.5,132.361 
	49.786,123.076 "/>
<g>
	<polygon points="0,9.686 1.465,7.077 0,6.285 	"/>
	<polygon points="0,25.422 0,29.545 4.912,38.4 0,47.969 0,52.349 7.179,38.363 	"/>
	<polygon points="0,71.831 4.526,80.822 1.448,87.375 0,86.514 0,88.84 2.321,90.221 6.75,80.792 0,67.382 	"/>
</g>
<polygon points="2.493,0 1.344,2.488 0,1.739 0,4.028 2.256,5.285 4.695,0 "/>
<polygon points="39.431,17.44 48.384,0 46.135,0 37.652,16.527 37.188,17.432 37.645,18.34 47.779,38.471 44.701,45.024 
	36.739,40.292 35.785,39.726 34.799,40.235 14.381,50.786 7.942,47.814 12.464,39.699 12.997,38.744 12.479,37.779 1.551,17.425 
	10.611,0 8.357,0 0,16.073 0,18.765 10.717,38.726 5.145,48.726 14.431,53.012 35.717,42.012 45.574,47.869 50.002,38.44 "/>
</svg>
