<?xml version="1.0" encoding="utf-8"?>
<!-- Generator: Adobe Illustrator 15.0.0, SVG Export Plug-In . SVG Version: 6.00 Build 0)  -->
<!DOCTYPE svg PUBLIC "-//W3C//DTD SVG 1.1//EN" "http://www.w3.org/Graphics/SVG/1.1/DTD/svg11.dtd">
<svg version="1.1" id="Слой_1" xmlns="http://www.w3.org/2000/svg" xmlns:xlink="http://www.w3.org/1999/xlink" x="0px" y="0px"
	 width="262.68px" height="56px" viewBox="0 0 262.68 56" enable-background="new 0 0 262.68 56" xml:space="preserve">
<path fill-rule="evenodd" clip-rule="evenodd" fill="#9D8B7C" d="M0,30.286v-26c0,0,15.711-0.421,32.839,5.883
	c3.763,1.385,10.273,4.23,16.367,7.867c7.697,4.594,14.731,9.975,14.731,9.975s-4.229,3.366-7.607,6.672
	c-4.252,4.163-7.855,8.465-7.855,8.465s-6.075-2.89-11.591-5.131c-5.183-2.105-9.731-3.545-12.533-4.31
	C13.002,30.611,0,30.286,0,30.286z"/>
<path fill-rule="evenodd" clip-rule="evenodd" fill="#B35A46" d="M129.335,30.813v-26c0,0-15.711-0.421-32.839,5.883
	c-6.989,2.572-18.987,8.705-27.754,15.647c-11.099,8.79-18.345,18.395-18.345,18.395s3.571,2.238,7.34,4.875
	c3.763,2.632,7.723,5.662,7.723,5.662s8.222-6.706,17.399-11.955c7.871-4.5,16.34-7.507,22.125-9.086
	C116.333,31.139,129.335,30.813,129.335,30.813z"/>
<path fill-rule="evenodd" clip-rule="evenodd" fill="#9D8B7C" d="M236.32,33.708c-2.803,0.765-7.352,2.204-12.533,4.31
	c-5.516,2.241-11.592,5.131-11.592,5.131s-3.604-4.302-7.855-8.465c-3.377-3.307-7.607-6.672-7.607-6.672s7.035-5.381,14.732-9.975
	c6.094-3.637,12.604-6.481,16.367-7.867c17.127-6.305,32.838-5.883,32.838-5.883v26C260.67,30.286,247.668,30.611,236.32,33.708z"/>
<path fill-rule="evenodd" clip-rule="evenodd" fill="#B35A46" d="M155.686,34.234c5.785,1.579,14.254,4.586,22.125,9.086
	c9.178,5.249,17.4,11.955,17.4,11.955s3.959-3.03,7.723-5.662c3.768-2.637,7.34-4.875,7.34-4.875s-7.246-9.605-18.346-18.395
	c-8.766-6.942-20.766-13.075-27.754-15.647c-17.127-6.305-32.837-5.883-32.837-5.883v26
	C131.336,30.813,144.338,31.139,155.686,34.234z"/>
<path fill-rule="evenodd" clip-rule="evenodd" fill="#9D8B7C" d="M0.002,0v2.285c0,0,13.002,0.326,24.351,3.422
	c2.802,0.765,7.351,2.204,12.533,4.31c5.516,2.241,11.591,5.131,11.591,5.131s3.603-4.302,7.855-8.465
	c3.377-3.307,7.607-6.672,7.607-6.672S63.928,0.001,63.927,0H0.002z"/>
<path fill-rule="evenodd" clip-rule="evenodd" fill="#B35A46" d="M66.706,0C56.767,8.296,50.4,16.736,50.4,16.736
	s3.571,2.239,7.34,4.875c3.763,2.632,7.723,5.663,7.723,5.663s8.222-6.706,17.399-11.955c7.871-4.501,16.34-7.507,22.125-9.086
	c11.349-3.096,24.351-3.422,24.351-3.422V0H66.706z"/>
<path fill-rule="evenodd" clip-rule="evenodd" fill="#B35A46" d="M193.969,0h-62.63v2.812c0,0,13.001,0.326,24.349,3.422
	c5.785,1.579,14.254,4.585,22.125,9.086c9.178,5.249,17.4,11.955,17.4,11.955s3.959-3.03,7.723-5.663
	c3.768-2.636,7.34-4.875,7.34-4.875S203.908,8.296,193.969,0z"/>
<path fill-rule="evenodd" clip-rule="evenodd" fill="#9D8B7C" d="M196.748,0c-0.002,0.001-0.014,0.01-0.014,0.01
	s4.23,3.366,7.607,6.672c4.252,4.163,7.855,8.465,7.855,8.465s6.076-2.89,11.592-5.131c5.182-2.105,9.73-3.545,12.533-4.31
	c11.348-3.096,24.35-3.422,24.35-3.422V0H196.748z"/>
<path fill-rule="evenodd" clip-rule="evenodd" fill="#9D8B7C" d="M260.684,56V32.27c0,0-15.711-0.422-32.84,5.883
	c-3.762,1.385-10.271,4.23-16.367,7.867c-7.697,4.594-14.73,9.975-14.73,9.975S196.752,56,196.754,56H260.684z"/>
<path fill-rule="evenodd" clip-rule="evenodd" fill="#B35A46" d="M193.998,56c-0.67-0.56-1.355-1.118-2.057-1.674
	c-8.768-6.942-20.766-13.074-27.754-15.646c-17.129-6.305-32.839-5.884-32.839-5.884V56H193.998z"/>
<path fill-rule="evenodd" clip-rule="evenodd" fill="#B35A46" d="M129.348,56V32.796c0,0-15.711-0.421-32.839,5.884
	c-6.989,2.572-18.987,8.704-27.754,15.646c-0.702,0.556-1.387,1.114-2.057,1.674H129.348z"/>
<path fill-rule="evenodd" clip-rule="evenodd" fill="#9D8B7C" d="M63.943,56c0,0,0.007-0.006,0.007-0.006s-7.034-5.381-14.731-9.975
	c-6.094-3.637-12.604-6.482-16.367-7.867C15.724,31.848,0.013,32.27,0.013,32.27V56H63.943z"/>
</svg>
