<?xml version="1.0" encoding="utf-8"?>
<!-- Generator: Adobe Illustrator 15.0.0, SVG Export Plug-In . SVG Version: 6.00 Build 0)  -->
<!DOCTYPE svg PUBLIC "-//W3C//DTD SVG 1.1//EN" "http://www.w3.org/Graphics/SVG/1.1/DTD/svg11.dtd">
<svg version="1.1" id="Слой_1" xmlns="http://www.w3.org/2000/svg" xmlns:xlink="http://www.w3.org/1999/xlink" x="0px" y="0px"
	 width="117px" height="232.8px" viewBox="0 0 117 232.8" enable-background="new 0 0 117 232.8" xml:space="preserve">
<path d="M113.002,60.306v64H94.656L83.299,112.95l-0.586-0.586h-0.828H33.011h-0.829l-0.585,0.586L20.24,124.306H2.002v-64h20.656
	l11.256,11.366l0.587,0.593h0.834h43.667h0.834l0.586-0.591l11.283-11.367H113.002 M115.002,58.306H90.871L79.002,70.265H35.335
	L23.493,58.306H0.002v68h21.066l11.942-11.941h48.874l11.943,11.941h21.174V58.306L115.002,58.306z"/>
<g>
	<polygon points="28.243,0 20.24,8.003 2.002,8.003 2.002,0 0.002,0 0.002,10.003 21.069,10.003 31.071,0 	"/>
	<polygon points="113.002,0 113.002,8.003 94.656,8.003 86.652,0 83.824,0 93.828,10.003 115.002,10.003 115.002,0 	"/>
</g>
<polygon points="32.372,0.003 20.502,11.961 0.002,11.961 0.002,13.961 20.502,13.961 21.335,13.961 21.922,13.371 33.205,2.003 
	54.502,2.003 54.502,66.003 36.156,66.003 24.799,54.646 24.213,54.061 23.385,54.061 0.002,54.061 0.002,56.061 23.385,56.061 
	35.327,68.003 56.502,68.003 56.502,0.003 "/>
<polygon points="32.372,116.45 20.502,128.409 0.002,128.409 0.002,130.409 20.502,130.409 21.335,130.409 21.922,129.817 
	33.205,118.45 54.502,118.45 54.502,182.45 36.156,182.45 24.799,171.094 24.213,170.508 23.385,170.508 0.002,170.508 
	0.002,172.508 23.385,172.508 35.327,184.45 56.502,184.45 56.502,116.45 "/>
<g>
	<polygon points="2.002,232.8 2.002,176.753 22.659,176.753 33.915,188.119 34.501,188.712 35.335,188.712 79.002,188.712 
		79.836,188.712 80.422,188.12 91.705,176.753 113.002,176.753 113.002,232.8 115.002,232.8 115.002,174.753 90.871,174.753 
		79.002,186.712 35.335,186.712 23.493,174.753 0.002,174.753 0.002,232.8 	"/>
	<polygon points="82.713,228.812 81.885,228.812 33.011,228.812 32.183,228.812 31.597,229.397 28.194,232.8 31.022,232.8 
		33.011,230.812 81.885,230.812 83.875,232.8 86.703,232.8 83.299,229.397 	"/>
</g>
<polygon points="116.998,170.508 91.512,170.508 90.684,170.508 90.098,171.094 78.74,182.45 60.502,182.45 60.502,118.45 
	81.158,118.45 92.414,129.815 93.002,130.409 93.836,130.409 116.998,130.409 116.998,128.409 93.836,128.409 81.992,116.45 
	58.502,116.45 58.502,184.45 79.568,184.45 91.512,172.508 116.998,172.508 "/>
<polygon points="116.998,54.061 91.512,54.061 90.684,54.061 90.098,54.646 78.74,66.003 60.502,66.003 60.502,2.003 81.158,2.003 
	92.414,13.369 93.002,13.961 93.836,13.961 116.998,13.961 116.998,11.961 93.836,11.961 81.992,0.003 58.502,0.003 58.502,68.003 
	79.568,68.003 91.512,56.061 116.998,56.061 "/>
</svg>
