<?xml version="1.0" encoding="utf-8"?>
<!-- Generator: Adobe Illustrator 15.0.0, SVG Export Plug-In . SVG Version: 6.00 Build 0)  -->
<!DOCTYPE svg PUBLIC "-//W3C//DTD SVG 1.1//EN" "http://www.w3.org/Graphics/SVG/1.1/DTD/svg11.dtd">
<svg version="1.1" id="Слой_1" xmlns="http://www.w3.org/2000/svg" xmlns:xlink="http://www.w3.org/1999/xlink" x="0px" y="0px"
	 width="200px" height="300px" viewBox="0 0 200 300" enable-background="new 0 0 200 300" xml:space="preserve">
<g>
	<path d="M98,103.998v44l-94.002,0l-0.001-44L98,103.998L98,103.998 M98,101.998H3.997c-1.104,0-1.999,0.896-1.999,2v44.001
		c0,1.104,0.896,2,1.999,2H98c1.104,0,2-0.896,2-2v-44.001C100,102.894,99.104,101.998,98,101.998L98,101.998z"/>
</g>
<g>
	<path d="M98,153.998v44H3.998l-0.001-44H98 M98,151.998H3.997c-1.104,0-1.999,0.895-1.999,2v44c0,1.104,0.896,2,1.999,2H98
		c1.104,0,2-0.896,2-2v-44C100,152.893,99.104,151.998,98,151.998L98,151.998z"/>
</g>
<g>
	<path d="M198.001,103.998L198.001,103.998V198H154l-0.001-94.002H198.001 M198.001,101.998h-44.002
		c-1.104,0-1.999,0.896-1.999,1.999V198c0,1.104,0.896,2,1.999,2h44.002c1.104,0,1.999-0.896,1.999-2v-94.003
		C200,102.894,199.104,101.998,198.001,101.998L198.001,101.998z"/>
</g>
<g>
	<path d="M148.001,103.998L148.001,103.998V198H104l-0.001-94.002H148.001 M148.001,101.998h-44.002
		c-1.104,0-1.999,0.896-1.999,1.999V198c0,1.104,0.896,2,1.999,2h44.002c1.104,0,1.999-0.896,1.999-2v-94.003
		C150,102.894,149.104,101.998,148.001,101.998L148.001,101.998z"/>
</g>
<g>
	<path d="M198.001,254L198.001,254v44h-94.003v-44H198.001 M198.001,252h-94.003c-1.104,0-2,0.895-2,2v44c0,1.104,0.896,2,2,2
		h94.003c1.104,0,1.999-0.896,1.999-2v-44C200,252.895,199.104,252,198.001,252L198.001,252z"/>
</g>
<g>
	<path d="M198.001,204L198.001,204v44h-94.003v-44H198.001 M198.001,202h-94.003c-1.104,0-2,0.895-2,2v44c0,1.104,0.896,2,2,2
		h94.003c1.104,0,1.999-0.896,1.999-2v-44C200,202.895,199.104,202,198.001,202L198.001,202z"/>
</g>
<g>
	<path d="M47.999,203.998L47.999,203.998V298h-44l0-94.002H47.999 M47.999,201.998H3.998c-1.104,0-2,0.896-2,2V298
		c0,1.104,0.896,2,2,2h44.001c1.104,0,2-0.896,2-2v-94.002C49.998,202.895,49.103,201.998,47.999,201.998L47.999,201.998z"/>
</g>
<g>
	<path d="M97.999,203.998L97.999,203.998V298h-44l0-94.002H97.999 M97.999,201.998H53.998c-1.104,0-2,0.896-2,2V298
		c0,1.104,0.896,2,2,2h44.001c1.104,0,2-0.896,2-2v-94.002C99.998,202.895,99.103,201.998,97.999,201.998L97.999,201.998z"/>
</g>
<g>
	<path d="M198.001,53.998L198.001,53.998v44l-94.003,0v-44H198.001 M198.001,51.998h-94.003c-1.104,0-2,0.896-2,2v44.001
		c0,1.104,0.896,2,2,2h94.003c1.104,0,1.999-0.896,1.999-2V53.998C200,52.894,199.104,51.998,198.001,51.998L198.001,51.998z"/>
</g>
<g>
	<path d="M198.001,3.998L198.001,3.998v44l-94.003,0v-44H198.001 M198.001,1.998h-94.003c-1.104,0-2,0.896-2,2v44.001
		c0,1.104,0.896,2,2,2h94.003c1.104,0,1.999-0.896,1.999-2V3.998C200,2.894,199.104,1.998,198.001,1.998L198.001,1.998z"/>
</g>
<g>
	<path d="M47.999,3.996L47.999,3.996v94.002l-44,0.001l0-94.003H47.999 M47.999,1.996H3.998c-1.104,0-2,0.896-2,2v94.003
		c0,1.104,0.896,1.999,2,1.999h44.001c1.104,0,2-0.896,2-1.999V3.996C49.998,2.892,49.103,1.996,47.999,1.996L47.999,1.996z"/>
</g>
<g>
	<path d="M97.999,3.996L97.999,3.996v94.002l-44,0.001l0-94.003H97.999 M97.999,1.996H53.998c-1.104,0-2,0.896-2,2v94.003
		c0,1.104,0.896,1.999,2,1.999h44.001c1.104,0,2-0.896,2-1.999V3.996C99.998,2.892,99.103,1.996,97.999,1.996L97.999,1.996z"/>
</g>
</svg>
