<?xml version="1.0" encoding="utf-8"?>
<!-- Generator: Adobe Illustrator 15.0.0, SVG Export Plug-In . SVG Version: 6.00 Build 0)  -->
<!DOCTYPE svg PUBLIC "-//W3C//DTD SVG 1.1//EN" "http://www.w3.org/Graphics/SVG/1.1/DTD/svg11.dtd">
<svg version="1.1" id="Слой_1" xmlns="http://www.w3.org/2000/svg" xmlns:xlink="http://www.w3.org/1999/xlink" x="0px" y="0px"
	 width="262.68px" height="56px" viewBox="0 0 262.68 56" enable-background="new 0 0 262.68 56" xml:space="preserve">
<path d="M2,6.313c4.542,0.116,16.974,0.898,30.148,5.747c3.934,1.448,10.211,4.233,16.033,7.707
	c5.065,3.023,9.887,6.428,12.507,8.337c-1.562,1.31-3.786,3.234-5.756,5.163c-2.977,2.914-5.61,5.859-6.985,7.438
	c-2.132-0.991-6.38-2.931-10.31-4.528c-6.118-2.484-10.961-3.895-12.76-4.386C15.912,29.346,6.097,28.598,2,28.382V6.313
	 M0.632,4.294C0.219,4.294,0,4.3,0,4.3v26c0,0,13.002,0.325,24.351,3.422c2.802,0.765,7.351,2.204,12.533,4.31
	c5.516,2.241,11.591,5.131,11.591,5.131s3.603-4.302,7.855-8.465c3.377-3.307,7.607-6.672,7.607-6.672s-7.034-5.381-14.731-9.975
	c-6.094-3.637-12.604-6.481-16.367-7.867C17.729,4.622,3.724,4.294,0.632,4.294L0.632,4.294z"/>
<path d="M127.335,6.84v22.069c-4.098,0.216-13.912,0.964-22.877,3.41c-3.66,0.999-13.188,3.902-22.591,9.278
	c-7.231,4.137-13.786,9.086-16.437,11.16c-1.481-1.113-4.066-3.035-6.546-4.77c-2.084-1.459-4.124-2.806-5.536-3.723
	c2.564-3.104,8.599-9.977,16.636-16.341c8.249-6.532,19.929-12.661,27.203-15.338C110.361,7.737,122.793,6.956,127.335,6.84
	 M128.704,4.821c-3.092,0-17.098,0.328-32.207,5.889c-6.989,2.572-18.987,8.705-27.754,15.647
	c-11.099,8.79-18.345,18.395-18.345,18.395s3.571,2.238,7.34,4.875c3.763,2.632,7.723,5.662,7.723,5.662s8.222-6.706,17.399-11.955
	c7.871-4.5,16.34-7.507,22.125-9.086c11.349-3.096,24.351-3.422,24.351-3.422v-26C129.335,4.827,129.117,4.821,128.704,4.821
	L128.704,4.821z"/>
<path d="M258.67,6.313v22.069c-4.096,0.216-13.91,0.963-22.877,3.41c-1.797,0.491-6.641,1.901-12.76,4.386
	c-3.93,1.598-8.178,3.537-10.309,4.528c-1.375-1.579-4.01-4.524-6.984-7.438c-1.971-1.929-4.195-3.854-5.758-5.163
	c2.619-1.909,7.438-5.312,12.508-8.337c5.82-3.474,12.1-6.259,16.033-7.707C241.697,7.211,254.129,6.429,258.67,6.313
	 M260.039,4.294c-3.094,0-17.1,0.328-32.207,5.889c-3.764,1.385-10.273,4.23-16.367,7.867c-7.697,4.594-14.732,9.975-14.732,9.975
	s4.23,3.366,7.607,6.672c4.252,4.163,7.855,8.465,7.855,8.465s6.076-2.89,11.592-5.131c5.182-2.105,9.73-3.545,12.533-4.31
	c11.348-3.097,24.35-3.422,24.35-3.422v-26C260.67,4.3,260.453,4.294,260.039,4.294L260.039,4.294z"/>
<path d="M133.336,6.84c4.541,0.116,16.974,0.897,30.146,5.747c7.275,2.677,18.955,8.806,27.203,15.338
	c8.039,6.364,14.072,13.237,16.637,16.341c-1.412,0.917-3.451,2.264-5.535,3.723c-2.48,1.734-5.064,3.656-6.547,4.77
	c-2.65-2.074-9.205-7.023-16.438-11.16c-9.402-5.376-18.93-8.279-22.59-9.278c-8.966-2.446-18.779-3.194-22.877-3.41V6.84
	 M131.967,4.821c-0.414,0-0.632,0.006-0.632,0.006v26c0,0,13.002,0.326,24.351,3.422c5.784,1.579,14.253,4.586,22.124,9.086
	c9.178,5.249,17.4,11.955,17.4,11.955s3.959-3.03,7.723-5.662c3.768-2.637,7.34-4.875,7.34-4.875s-7.246-9.605-18.346-18.395
	c-8.766-6.942-20.766-13.075-27.754-15.647C149.066,5.148,135.061,4.821,131.967,4.821L131.967,4.821z"/>
<path d="M258.672,0v0.381c-4.096,0.216-13.91,0.964-22.877,3.41c-1.797,0.491-6.641,1.9-12.76,4.386
	c-3.93,1.597-8.178,3.537-10.309,4.528c-1.375-1.58-4.01-4.524-6.984-7.438c-1.971-1.929-4.195-3.854-5.758-5.164
	c0.043-0.032,0.098-0.071,0.143-0.103h-3.361c-0.008,0.006-0.031,0.023-0.031,0.023s4.23,3.366,7.607,6.672
	c4.252,4.163,7.855,8.465,7.855,8.465s6.076-2.89,11.592-5.131c5.182-2.105,9.73-3.545,12.533-4.31
	c11.348-3.096,24.35-3.422,24.35-3.422V0H258.672z"/>
<path d="M193.953,0h-3.17c7.99,6.343,13.986,13.174,16.541,16.265c-1.412,0.917-3.451,2.264-5.535,3.722
	c-2.48,1.734-5.064,3.656-6.547,4.771c-2.65-2.074-9.205-7.024-16.438-11.16c-9.402-5.376-18.93-8.28-22.59-9.279
	c-8.966-2.446-18.779-3.194-22.877-3.41V0h-2v2.825c0,0,13.002,0.326,24.351,3.422c5.784,1.579,14.253,4.585,22.124,9.086
	c9.178,5.249,17.4,11.955,17.4,11.955s3.959-3.03,7.723-5.663c3.768-2.636,7.34-4.875,7.34-4.875S203.9,8.301,193.953,0z"/>
<path d="M127.337,0v0.908c-4.098,0.216-13.912,0.964-22.877,3.41c-3.66,0.999-13.188,3.903-22.591,9.279
	c-7.231,4.136-13.786,9.086-16.437,11.16c-1.481-1.114-4.066-3.036-6.546-4.771c-2.084-1.458-4.124-2.805-5.536-3.722
	C55.904,13.174,61.902,6.343,69.892,0h-3.169C56.774,8.301,50.4,16.75,50.4,16.75s3.571,2.239,7.34,4.875
	c3.763,2.632,7.723,5.663,7.723,5.663s8.222-6.706,17.399-11.955c7.871-4.501,16.34-7.507,22.125-9.086
	c11.349-3.096,24.351-3.422,24.351-3.422V0H127.337z"/>
<path d="M60.547,0c0.044,0.032,0.1,0.071,0.143,0.103c-1.562,1.309-3.786,3.234-5.756,5.164c-2.977,2.914-5.61,5.858-6.985,7.438
	c-2.132-0.991-6.38-2.931-10.31-4.528c-6.118-2.485-10.961-3.895-12.76-4.386c-8.965-2.446-18.78-3.194-22.877-3.41V0h-2v2.298
	c0,0,13.002,0.326,24.351,3.422c2.802,0.765,7.351,2.204,12.533,4.31c5.516,2.241,11.591,5.131,11.591,5.131
	s3.603-4.302,7.855-8.465c3.377-3.307,7.607-6.672,7.607-6.672S63.917,0.006,63.909,0H60.547z"/>
<path d="M2.013,56V34.296c4.542,0.116,16.974,0.897,30.148,5.747c3.934,1.448,10.211,4.233,16.033,7.707
	c4.995,2.981,9.743,6.326,12.386,8.25h3.36c-0.11-0.084-7.085-5.41-14.721-9.967c-6.094-3.637-12.604-6.482-16.367-7.867
	c-15.109-5.562-29.115-5.889-32.207-5.889c-0.413,0-0.632,0.006-0.632,0.006V56H2.013z"/>
<path d="M69.883,56c0.039-0.031,0.076-0.062,0.114-0.092C78.246,49.375,89.926,43.247,97.2,40.57
	c13.174-4.85,25.606-5.631,30.148-5.748V56h2V32.81c0,0-0.219-0.006-0.632-0.006c-3.092,0-17.098,0.327-32.207,5.89
	c-6.989,2.572-18.987,8.704-27.754,15.646c-0.696,0.551-1.376,1.105-2.041,1.66H69.883z"/>
<path d="M133.348,56V34.822c4.543,0.117,16.975,0.898,30.148,5.748c7.273,2.677,18.953,8.805,27.203,15.338
	c0.039,0.03,0.076,0.061,0.113,0.092h3.17c-0.666-0.555-1.346-1.109-2.041-1.66c-8.768-6.942-20.766-13.074-27.754-15.646
	c-15.109-5.562-29.115-5.89-32.208-5.89c-0.414,0-0.632,0.006-0.632,0.006V56H133.348z"/>
<path d="M200.115,56c2.643-1.923,7.387-5.267,12.387-8.25c5.822-3.474,12.1-6.259,16.033-7.707
	c13.174-4.85,25.605-5.631,30.148-5.747V56h2V32.283c0,0-0.219-0.006-0.633-0.006c-3.092,0-17.098,0.327-32.207,5.889
	c-3.762,1.385-10.271,4.23-16.367,7.867c-7.635,4.557-14.609,9.883-14.721,9.967H200.115z"/>
</svg>
