<?xml version="1.0" encoding="utf-8"?>
<!-- Generator: Adobe Illustrator 15.0.0, SVG Export Plug-In . SVG Version: 6.00 Build 0)  -->
<!DOCTYPE svg PUBLIC "-//W3C//DTD SVG 1.1//EN" "http://www.w3.org/Graphics/SVG/1.1/DTD/svg11.dtd">
<svg version="1.1" id="Слой_1" xmlns="http://www.w3.org/2000/svg" xmlns:xlink="http://www.w3.org/1999/xlink" x="0px" y="0px"
	 width="173.03px" height="169.45px" viewBox="0 0 173.03 169.45" enable-background="new 0 0 173.03 169.45" xml:space="preserve">
<path fill-rule="evenodd" clip-rule="evenodd" fill="#B35A46" d="M0.03,59.142l4.714-8.715l10.429,5.857L36.03,44.713l21.429,11
	l21-10.571l9.428,4.429l-5.857,9.856l11.001,21.286l-4.287,9.285l-10-5.571L57.459,95.855L36.03,84.713L14.887,95.855L6.03,90.141
	l5.714-9.285L0.03,59.142z"/>
<path fill-rule="evenodd" clip-rule="evenodd" fill="#8BA796" d="M122.482,44.724l8.715,4.714l-5.857,10.429l11.572,20.857
	l-11,21.429l10.57,21l-4.428,9.428l-9.857-5.857l-21.285,11l-9.287-4.285l5.572-10l-11.429-21.285l11.144-21.429L85.768,59.581
	l5.714-8.857l9.287,5.715L122.482,44.724z"/>
<path fill-rule="evenodd" clip-rule="evenodd" fill="#B35A46" d="M43.274,16.778l4.714-8.715l10.429,5.857L79.274,2.35l21.429,11
	l21-10.571l9.43,4.429l-5.857,9.856l11,21.286l-4.287,9.285l-10-5.571l-21.285,11.429L79.274,42.35L58.131,53.492l-8.856-5.714
	l5.714-9.286L43.274,16.778z"/>
<path fill-rule="evenodd" clip-rule="evenodd" fill="#B35A46" d="M0.054,59.15l4.714-8.715l10.429,5.857l20.857-11.571l21.429,11
	l21-10.571l9.428,4.429l-5.857,9.856l11.001,21.286l-4.287,9.285l-10-5.57L57.482,95.863L36.054,84.721L14.91,95.863L6.054,90.15
	l5.714-9.287L0.054,59.15z"/>
<g>
	<polygon fill-rule="evenodd" clip-rule="evenodd" fill="#8BA796" points="51.94,0 48.389,6.373 57.675,10.659 78.301,0 	"/>
	<polygon fill-rule="evenodd" clip-rule="evenodd" fill="#8BA796" points="79.536,0 88.818,5.517 91.408,0 	"/>
</g>
<polygon fill-rule="evenodd" clip-rule="evenodd" fill="#B35A46" points="95.885,0 92.543,5.434 101.398,11.148 122.543,0.005 
	143.971,11.148 164.732,0 "/>
<polygon fill-rule="evenodd" clip-rule="evenodd" fill="#8BA796" points="93.691,123.096 82.12,102.238 87.977,91.809 
	79.262,87.096 57.548,98.811 48.262,93.096 42.548,101.953 53.69,123.096 42.548,144.523 53.977,165.809 51.948,169.449 
	78.29,169.449 78.977,169.096 79.574,169.449 91.418,169.449 93.262,165.523 82.69,144.523 "/>
<g>
	<polygon fill-rule="evenodd" clip-rule="evenodd" fill="#B35A46" points="0.054,133.654 0.054,136.551 1.399,134.285 	"/>
	<polygon fill-rule="evenodd" clip-rule="evenodd" fill="#B35A46" points="0.054,152.873 0.054,169.449 4.686,169.449 
		6.542,165.428 	"/>
</g>
<polygon fill-rule="evenodd" clip-rule="evenodd" fill="#B35A46" points="38.786,101.789 44.644,91.934 35.215,87.504 
	14.215,98.076 0.03,90.795 0.03,130.844 14.215,138.219 35.5,126.789 45.5,132.361 49.786,123.076 "/>
<g>
	<polygon fill-rule="evenodd" clip-rule="evenodd" fill="#8BA796" points="0.054,25.521 0.054,52.243 7.179,38.363 	"/>
	<polygon fill-rule="evenodd" clip-rule="evenodd" fill="#8BA796" points="0.054,88.873 2.321,90.221 6.75,80.792 0.054,67.49 	"/>
	<polygon fill-rule="evenodd" clip-rule="evenodd" fill="#8BA796" points="0.054,9.589 1.465,7.077 0.054,6.314 	"/>
</g>
<polygon fill-rule="evenodd" clip-rule="evenodd" fill="#B35A46" points="0,0 0,4.028 2.256,5.285 4.695,0 "/>
<polygon fill-rule="evenodd" clip-rule="evenodd" fill="#8BA796" points="39.431,17.44 48.384,0 8.357,0 0.03,16.014 0.03,18.822 
	10.717,38.726 5.145,48.726 14.431,53.012 35.717,42.012 45.574,47.869 50.002,38.44 "/>
<polygon fill-rule="evenodd" clip-rule="evenodd" fill="#8BA796" points="38.852,144.582 44.709,134.152 35.994,129.439 
	14.28,141.154 4.994,135.439 0.054,143.098 0.054,145.764 10.423,165.439 8.337,169.449 48.364,169.449 50.423,165.439 "/>
<polygon fill-rule="evenodd" clip-rule="evenodd" fill="#B35A46" points="173.031,152.834 168.543,144.148 173.031,136.596 
	173.031,133.648 164.971,129.863 143.971,140.434 122.543,129.434 101.686,141.006 91.256,135.148 86.542,143.863 98.256,165.576 
	95.873,169.449 122.512,169.449 122.543,169.434 122.572,169.449 164.693,169.449 165.256,169.148 165.799,169.449 173.031,169.449 
	"/>
<polygon fill-rule="evenodd" clip-rule="evenodd" fill="#8BA796" points="173.031,143.139 172.281,144.303 173.031,145.725 "/>
<polygon fill-rule="evenodd" clip-rule="evenodd" fill="#B35A46" points="173.031,90.801 165.787,87.082 144.93,98.652 
	134.5,92.795 129.787,101.51 141.5,123.225 135.787,132.51 144.643,138.225 165.787,127.082 173.031,130.848 "/>
<polygon fill-rule="evenodd" clip-rule="evenodd" fill="#8BA796" points="173,16.062 172.281,17.445 173,18.785 "/>
<polygon fill-rule="evenodd" clip-rule="evenodd" fill="#B35A46" points="173,0 165.762,0 173,4.034 "/>
<polygon fill-rule="evenodd" clip-rule="evenodd" fill="#8BA796" points="173,9.691 173,6.29 165.75,2.369 144.037,14.083 
	134.75,8.369 129.037,17.226 140.18,38.369 129.037,59.797 140.465,81.082 134.893,91.082 144.18,95.369 165.465,84.369 
	173.031,88.865 173.031,67.449 169.18,59.797 173.031,52.294 173.031,25.483 168.607,17.511 "/>
</svg>
