<?xml version="1.0" encoding="utf-8"?>
<!-- Generator: Adobe Illustrator 15.0.0, SVG Export Plug-In . SVG Version: 6.00 Build 0)  -->
<!DOCTYPE svg PUBLIC "-//W3C//DTD SVG 1.1//EN" "http://www.w3.org/Graphics/SVG/1.1/DTD/svg11.dtd">
<svg version="1.1" id="Слой_1" xmlns="http://www.w3.org/2000/svg" xmlns:xlink="http://www.w3.org/1999/xlink" x="0px" y="0px"
	 width="349px" height="303.15px" viewBox="0 0 349 303.15" enable-background="new 0 0 349 303.15" xml:space="preserve">
<g>
	<path fill="#8BA796" d="M203.264,49.542l-28.591,49.521h-57.182L88.9,49.542l28.591-49.521h57.182L203.264,49.542z"/>
	<path fill="#B6B7B7" d="M203.264,150.584l-28.591,49.521h-57.182L88.9,150.584l28.591-49.521h57.182L203.264,150.584z"/>
	<path fill="#B6B7B7" d="M203.264,251.626l-28.591,49.521h-57.182L88.9,251.626l28.591-49.521h57.182L203.264,251.626z"/>
	<path fill="#8BA796" d="M290.461,100.063l-28.59,49.521h-57.184l-28.59-49.521l28.59-49.521h57.184L290.461,100.063z"/>
	<path fill="#B6B7B7" d="M290.461,201.105l-28.59,49.521h-57.184l-28.59-49.521l28.59-49.521h57.184L290.461,201.105z"/>
	<path fill="#9D8B7C" d="M115.795,100.229l-28.591,49.521H30.022L1.431,100.229l28.591-49.521h57.182L115.795,100.229z"/>
	<path fill="#B35A46" d="M115.795,201.271l-28.591,49.521H30.022L1.431,201.271l28.591-49.521h57.182L115.795,201.271z"/>
	<polygon fill="#9D8B7C" points="1.9,0 30.022,48.709 87.204,48.709 115.326,0 	"/>
	<polygon fill="#8BA796" points="176.662,0 204.688,48.542 261.871,48.542 289.896,0 	"/>
	<polygon fill="#9D8B7C" points="115.313,303.15 115.795,302.314 87.204,252.793 30.022,252.793 1.431,302.314 1.914,303.15 	"/>
	<polygon fill="#8BA796" points="289.883,303.15 290.461,302.147 261.871,252.626 204.688,252.626 176.098,302.147 176.676,303.15 	
		"/>
	<polygon fill="#9D8B7C" points="349,0 291.824,0 263.234,49.521 291.824,99.042 349,99.042 	"/>
	<polygon fill="#B35A46" points="349,101.042 291.824,101.042 263.234,150.563 291.824,200.084 349,200.084 	"/>
	<polygon fill="#B35A46" points="349,202.084 291.824,202.084 263.234,251.605 291.824,301.126 349,301.126 	"/>
	<polygon fill="#9D8B7C" points="0.007,0 0,0 0,99.042 0.007,99.042 28.598,49.521 	"/>
	<polygon fill="#B35A46" points="0.007,101.042 0,101.042 0,200.084 0.007,200.084 28.598,150.563 	"/>
	<polygon fill="#B35A46" points="0.007,202.084 0,202.084 0,301.125 0.007,301.125 28.598,251.605 	"/>
</g>
</svg>
