<?xml version="1.0" standalone="no"?>
<!DOCTYPE svg PUBLIC "-//W3C//DTD SVG 20010904//EN"
 "http://www.w3.org/TR/2001/REC-SVG-20010904/DTD/svg10.dtd">
<svg version="1.0" xmlns="http://www.w3.org/2000/svg"
 width="450.000000pt" height="450.000000pt" viewBox="0 0 450.000000 450.000000"
 preserveAspectRatio="xMidYMid meet">
<metadata>
Created by potrace 1.11, written by Peter Selinger 2001-2013
</metadata>
<g transform="translate(0.000000,450.000000) scale(0.100000,-0.100000)"
fill="#000000" stroke="none">
<path d="M0 2805 l0 -1330 855 0 c470 0 855 3 855 7 0 4 -46 76 -102 160 -56
84 -102 155 -103 158 0 3 -11 21 -25 40 -14 19 -30 42 -35 51 -14 22 -89 137
-106 162 -8 10 -26 37 -41 58 -16 21 -28 41 -28 43 0 3 -71 112 -158 243 -87
131 -191 288 -230 348 -40 61 -77 110 -82 110 -7 0 -223 -203 -438 -413 -30
-29 -56 -51 -59 -49 -2 3 21 42 52 87 30 46 55 84 55 86 0 2 31 50 68 106 77
115 294 446 440 668 52 80 136 208 187 285 51 77 142 217 203 310 61 94 116
176 122 183 6 6 9 12 8 13 -2 1 -326 2 -721 3 l-717 1 0 -1330z"/>
<path d="M1525 4130 c-1 -3 -3 -198 -3 -435 -1 -236 -1 -451 -1 -477 -1 -32
-5 -48 -14 -48 -20 0 -152 -66 -205 -102 -89 -61 -189 -181 -164 -197 5 -3 17
-19 26 -36 9 -16 32 -50 51 -75 18 -25 34 -48 34 -51 1 -4 28 -47 61 -95 33
-49 65 -96 70 -104 5 -8 37 -55 70 -104 33 -48 60 -91 60 -95 0 -4 8 -16 18
-27 16 -18 131 -187 142 -209 7 -14 64 -99 70 -105 5 -5 78 -114 95 -142 17
-29 194 -292 210 -313 8 -10 15 -23 15 -28 0 -13 68 1 96 20 13 8 24 14 26 13
11 -6 155 72 241 130 115 77 224 176 291 265 25 33 49 65 53 70 35 43 123 244
139 320 25 110 34 296 19 375 -21 114 -52 193 -106 273 -97 142 -347 299 -451
283 -119 -19 -386 -191 -573 -368 -70 -66 -49 -23 58 119 57 76 123 165 147
198 24 33 47 62 52 63 4 2 8 8 8 13 0 5 7 17 15 26 15 18 498 665 584 783 l48
65 -590 0 c-324 0 -590 -2 -592 -5z"/>
<path d="M4240 4132 c-84 -9 -231 -36 -284 -53 -137 -44 -317 -129 -346 -164
-7 -8 -17 -15 -22 -15 -27 0 -194 -150 -274 -246 -327 -391 -399 -943 -184
-1410 25 -56 124 -222 139 -234 3 -3 18 -21 32 -40 35 -47 151 -163 197 -197
20 -15 39 -30 42 -34 15 -17 136 -91 209 -128 78 -39 243 -96 308 -107 15 -2
33 -6 40 -9 26 -9 164 -19 278 -19 l120 -1 3 1330 2 1330 -117 0 c-65 0 -129
-1 -143 -3z"/>
<path d="M0 678 l0 -268 2250 0 2250 0 -2 268 -3 267 -2247 0 -2248 1 0 -268z"/>
</g>
</svg>
